<?xml version="1.0" encoding="utf-8"?>
<!-- Generator: Adobe Illustrator 26.0.3, SVG Export Plug-In . SVG Version: 6.00 Build 0)  -->
<svg version="1.1" id="Layer_1" xmlns="http://www.w3.org/2000/svg" xmlns:xlink="http://www.w3.org/1999/xlink" x="0px" y="0px"
	 viewBox="0 0 648 216" style="enable-background:new 0 0 648 216;" xml:space="preserve">
<g>
	<path d="M220.98,81.86l7.48-16.63c4.87-11.16,5.82-21.49-4.39-21.49c-8.43,0-17.46,7.36-30.05,30.52h-1.54l3.8-8.67
		c4.75-10.92,8.31-21.85-2.02-21.85c-8.31,0-17.34,7.36-29.93,30.52h-1.54l9.14-22.33c1.9-4.63,0.71-8.19-5.23-8.19
		c-7.48,0-15.2,6.17-23.16,17.81l2.49,2.49c6.89-9.02,13.78-14.49,10.57-5.34l-13.06,36.93h13.66
		c8.67-21.49,24.11-42.16,28.38-42.16c2.37,0,1.54,2.97-2.02,12.94l-10.33,29.21h13.66c8.67-21.49,24.11-42.16,28.38-42.16
		c2.38,0,2.61,1.66-1.42,11.52L204,88.63c-1.9,4.75,0.12,8.19,6.06,8.19c8.08,0,16.15-6.41,24.11-18.05l-2.73-2.49
		C224.78,85.3,216.94,90.77,220.98,81.86z"/>
	<path d="M293.66,58.94c0-11.52-7.13-15.44-16.27-15.44c-19.36,0-36.58,19.71-36.58,37.77c0,11.4,7.24,15.56,16.15,15.56
		C276.32,96.82,293.66,77.23,293.66,58.94z M274.18,47.3c2.61,0,4.63,2.38,4.63,7.6c0,10.45-7.72,38.12-17.81,38.12
		c-3.09,0-5.46-2.26-5.46-8.43C255.54,72.12,264.92,47.3,274.18,47.3z"/>
	<path d="M349.12,96.82c10.09,0,23.51-6.65,23.51-17.46c0-4.28-2.14-7.72-4.51-10.93c6.29-5.94,11.4-11.64,11.4-17.22
		c0-6.06-6.53-7.72-11.4-7.72c-9.03,0-21.38,5.34-21.38,16.39s12.23,17.1,12.23,26.01c0,3.56-1.54,6.29-4.99,6.29
		c-4.87,0-9.38-5.58-9.74-10.33l-1.92-0.34l-2.12-0.37c-2.97,2.85-3.44,5.23-3.44,6.65C336.77,92.07,340.81,96.82,349.12,96.82z
		 M366.34,47.89c3.21,0,4.87,2.97,4.87,7.01c0,4.04-1.54,7.84-4.39,11.76c-3.21-3.92-6.53-7.72-6.53-12.35
		C360.28,49.91,363.49,47.89,366.34,47.89z"/>
	<path d="M282.39,140.45l16.34-46.04c1.79,1.44,4.38,2.42,8.11,2.42c10.09,0,23.51-6.65,23.51-17.46c0-4.28-2.14-7.72-4.51-10.93
		c6.29-5.94,11.4-11.64,11.4-17.22c0-6.06-6.53-7.72-11.4-7.72c-9.03,0-21.38,5.34-21.38,16.39s12.23,17.1,12.23,26.01
		c0,3.56-1.54,6.29-4.99,6.29c-4.87,0-8.46-4.76-8.82-9.51l-1.15-0.32c-1.19-0.33-2.44-0.43-3.67-0.3l-1.38,0.15l-1.6,4.65
		c-0.89,2.58,0.11-0.44-1.81,5.33l-4.59,13.24c-1.49-0.54-2.35-0.85-4.48-0.85c-16.44,0-34.17,18.47-34.17,37.16
		c0,8.11,3.52,10.78,5.66,10.78c4.8,0,17.19-13.77,23.92-21.14l-5.55,15.8c-1.17,3.63,1.6,5.34,3.31,5.34
		c3.52,0,8.76-5.13,15.27-16.23l-1.07-1.6C282.82,146.64,279.51,148.24,282.39,140.45z M324.06,47.89c3.21,0,4.87,2.97,4.87,7.01
		c0,4.04-1.54,7.84-4.39,11.76c-3.21-3.92-6.53-7.72-6.53-12.35C318.01,49.91,321.21,47.89,324.06,47.89z M260.61,145.36
		c-3.52,0-4.48-4.05-4.48-8.11c0-11.64,11.75-29.25,22-29.25c2.78,0,6.41,1.17,8.54,3.2l-5.77,16.45
		C273.96,134.58,262.85,145.36,260.61,145.36z"/>
	<path d="M324.39,104.57c-13.77,0-28.62,19-28.62,35.13c0,7.9,3.74,12.71,10.46,12.71c5.55,0,14.52-3.42,19.22-11.53l-0.85-1.5
		c-3.42,4.81-9.93,7.8-13.99,7.8c-4.91,0-7.79-5.02-7.79-10.89c0-1.39,0.11-2.78,0.43-4.27c18.58-4.17,28.83-11.1,28.83-20.07
		C332.07,108.31,330.04,104.57,324.39,104.57z M303.78,129.56c2.78-10.78,11.42-22.1,17.4-22.1c2.24,0,3.84,1.28,3.84,5.44
		C325.03,124.54,312.11,127.53,303.78,129.56z"/>
	<path d="M361.25,104.57c-8.11,0-15.48,6.19-15.48,13.67c0,8.97,10.68,14.73,10.68,23.38c0,4.91-3.74,7.37-7.26,7.37
		c-5.34,0-9.4-5.98-9.72-10.25l-1.6-0.32c-2.35,1.92-2.78,4.38-2.78,5.98c0,3.52,2.24,8.11,10.14,8.11
		c8.33,0,16.34-5.98,16.34-15.05c0-3.74-1.6-7.05-3.63-10.14c8.33-5.77,11.85-11.64,11.85-16.12
		C369.79,106.06,365.3,104.57,361.25,104.57z M357.3,126.46c-3.1-4.38-6.51-8.11-6.51-11.85c0-4.91,5.23-7.15,8.22-7.15
		c3.2,0,5.02,2.35,5.02,5.66C364.02,116.85,361.67,121.66,357.3,126.46z"/>
	<path d="M393.49,88.66c2.24,0,4.38-1.82,4.38-4.27c0-2.35-2.14-4.38-4.38-4.38c-2.35,0-4.48,2.03-4.48,4.38
		C389.01,86.85,391.14,88.66,393.49,88.66z"/>
	<path d="M389.65,134.9c-8.33,11.96-12.49,13.67-9.18,5.55l11.85-29.69c1.39-3.63-0.75-5.76-3.31-5.76
		c-3.52,0-8.76,4.91-15.59,16.01l1.17,1.6c8.86-12.28,12.28-13.67,9.18-5.55l-11.53,29.68c-1.49,3.63,1.28,5.77,3.52,5.77
		c3.52,0,8.54-4.91,15.27-16.02L389.65,134.9z"/>
	<path d="M425.52,104.68c-10.79,0-21.25,8.76-21.25,19.43c0,4.38,1.6,7.37,4.27,9.08c-4.16,1.81-9.29,5.13-9.29,8.01
		c0,2.03,1.49,3.74,5.23,5.34c-6.08,4.06-16.12,9.72-16.55,14.63c-0.21,5.55,4.16,10.36,14.63,10.36c12.17,0,26.91-6.19,26.91-16.44
		c0-4.91-3.63-6.3-10.68-9.4l-9.07-4.06c-2.03-0.75-2.99-1.71-2.99-2.99c0-1.07,1.81-3.2,4.48-4.38c1.07,0.32,2.24,0.43,3.52,0.43
		c10.46,0,21.46-9.4,21.46-19.97c0-2.14-0.43-3.84-1.28-5.34l8.54,2.24l1.07-4.38c-5.13,0-9.72,0-12.17-0.75
		C430.54,105.32,428.19,104.68,425.52,104.68z M407.58,147.82l5.87,2.35c5.13,2.03,8.65,3.95,8.65,7.9c0,6.94-9.72,11.1-18.05,11.1
		c-6.73,0-9.5-2.99-9.18-6.94C395.09,157.21,402.67,151.45,407.58,147.82z M416.13,132.65c-4.38,0-5.34-3.42-5.34-6.62
		c0-7.9,5.66-19.43,13.13-19.43c4.06,0,5.34,3.31,5.34,7.37C429.26,122.51,423.81,132.65,416.13,132.65z"/>
	<path d="M485.28,123.79c4.38-11.1,6.19-19.01-0.85-19.01c-5.55,0-13.99,5.98-25.95,26.37h-1.39l8.22-21.03
		c1.28-3.52-0.11-5.34-2.03-5.34c-3.95,0-9.18,4.91-16.02,16.02l1.17,1.6c8.65-11.96,12.07-13.45,9.18-5.55l-12.39,34.6h6.09
		c8.11-20.39,22-40.68,28.62-40.68c4.16,0,2.67,4.59,0.11,11.75l-9.18,24.66c-1.39,3.63,0.75,5.34,2.67,5.34
		c3.74,0,8.76-5.13,15.48-16.23l-1.07-1.6c-8.65,11.96-11.96,13.46-9.07,5.77L485.28,123.79z"/>
	<path d="M498.41,142.05c-2.88,0-5.44,2.24-5.44,5.23s2.56,5.23,5.44,5.23c2.99,0,5.55-2.24,5.55-5.23S501.4,142.05,498.41,142.05z"
		/>
</g>
</svg>
