<svg width="347" height="126" xmlns="http://www.w3.org/2000/svg" xmlns:xlink="http://www.w3.org/1999/xlink" overflow="hidden"><defs><clipPath id="clip0"><rect x="0" y="0" width="347" height="126"/></clipPath></defs><g clip-path="url(#clip0)"><path d="M212.665 78.7799 219.864 62.7757C224.551 52.0356 225.465 42.0942 215.639 42.0942 207.526 42.0942 198.836 49.1773 186.72 71.4659L185.238 71.4659 188.895 63.1221C193.466 52.613 196.892 42.0942 186.951 42.0942 178.953 42.0942 170.263 49.1773 158.147 71.4659L156.665 71.4659 165.461 49.9761C167.289 45.5203 166.144 42.0942 160.428 42.0942 153.229 42.0942 145.8 48.0321 138.139 59.2341L140.535 61.6304C147.166 52.9498 153.797 47.6856 150.708 56.4914L138.139 92.0318 151.285 92.0318C159.629 71.3504 174.488 51.4581 178.597 51.4581 180.878 51.4581 180.079 54.3164 176.653 63.9113L166.712 92.0222 179.858 92.0222C188.202 71.3408 203.061 51.4485 207.17 51.4485 209.461 51.4485 209.682 53.0461 205.804 62.5351L196.324 85.2952C194.496 89.8665 196.44 93.1771 202.156 93.1771 209.932 93.1771 217.699 87.0082 225.359 75.8062L222.732 73.4099C216.322 82.0905 208.777 87.3547 212.665 78.7799Z" transform="matrix(1 0 0 1.00061 -138.181 -41.0009)"/><path d="M282.611 56.7223C282.611 45.6358 275.749 41.8633 266.953 41.8633 248.321 41.8633 231.749 60.8317 231.749 78.2121 231.749 89.1832 238.717 93.1867 247.292 93.1867 265.923 93.1771 282.611 74.3242 282.611 56.7223ZM263.864 45.5203C266.376 45.5203 268.32 47.8107 268.32 52.8343 268.32 62.8911 260.89 89.52 251.18 89.52 248.206 89.52 245.925 87.3451 245.925 81.4072 245.925 69.4064 254.952 45.5203 263.864 45.5203Z" transform="matrix(1 0 0 1.00061 -138.181 -41.0009)"/><path d="M335.984 93.1771C345.694 93.1771 358.609 86.7773 358.609 76.374 358.609 72.2551 356.55 68.9445 354.269 65.8553 360.322 60.1388 365.24 54.6532 365.24 49.2832 365.24 43.4512 358.956 41.8536 354.269 41.8536 345.579 41.8536 333.694 46.9927 333.694 57.627 333.694 68.2612 345.463 74.0836 345.463 82.6583 345.463 86.0844 343.981 88.7116 340.661 88.7116 335.974 88.7116 331.634 83.3416 331.288 78.7703L329.44 78.4431 327.4 78.087C324.541 80.8298 324.089 83.1203 324.089 84.4868 324.099 88.6058 327.987 93.1771 335.984 93.1771ZM352.556 46.0881C355.645 46.0881 357.243 48.9463 357.243 52.8343 357.243 56.7223 355.761 60.3794 353.018 64.1519 349.929 60.3794 346.734 56.7223 346.734 52.2665 346.724 48.0321 349.813 46.0881 352.556 46.0881Z" transform="matrix(1 0 0 1.00061 -138.181 -41.0009)"/><path d="M271.765 135.165 287.49 90.8577C289.213 92.2436 291.705 93.1867 295.295 93.1867 305.005 93.1867 317.92 86.7869 317.92 76.3836 317.92 72.2647 315.861 68.9541 313.58 65.8649 319.633 60.1484 324.551 54.6628 324.551 49.2928 324.551 43.4608 318.267 41.8633 313.58 41.8633 304.89 41.8633 293.004 47.0023 293.004 57.6366 293.004 68.2708 304.774 74.0932 304.774 82.6679 304.774 86.094 303.292 88.7213 299.972 88.7213 295.285 88.7213 291.83 84.1404 291.484 79.5691L290.377 79.2611C289.232 78.9435 288.029 78.8473 286.845 78.9724L285.517 79.1168 283.977 83.5918C283.121 86.0747 284.083 83.1684 282.235 88.7213L277.818 101.463C276.384 100.943 275.557 100.645 273.507 100.645 257.685 100.645 240.622 118.42 240.622 136.407 240.622 144.212 244.01 146.781 246.069 146.781 250.689 146.781 262.613 133.529 269.089 126.437L263.748 141.642C262.622 145.136 265.288 146.781 266.934 146.781 270.321 146.781 275.364 141.844 281.629 131.162L280.599 129.622C272.179 141.123 268.993 142.662 271.765 135.165ZM311.867 46.0881C314.956 46.0881 316.554 48.9463 316.554 52.8343 316.554 56.7223 315.072 60.3794 312.329 64.1519 309.24 60.3794 306.045 56.7223 306.045 52.2665 306.045 48.0321 309.124 46.0881 311.867 46.0881ZM250.804 139.891C247.417 139.891 246.493 135.993 246.493 132.086 246.493 120.884 257.801 103.936 267.665 103.936 270.341 103.936 273.834 105.062 275.884 107.016L270.331 122.847C263.652 129.516 252.96 139.891 250.804 139.891Z" transform="matrix(1 0 0 1.00061 -138.181 -41.0009)"/><path d="M312.185 100.635C298.933 100.635 284.641 118.921 284.641 134.444 284.641 142.046 288.241 146.675 294.708 146.675 300.049 146.675 308.681 143.384 313.205 135.579L312.387 134.136C309.095 138.765 302.83 141.642 298.923 141.642 294.198 141.642 291.426 136.811 291.426 131.162 291.426 129.824 291.532 128.487 291.84 127.053 309.721 123.04 319.585 116.37 319.585 107.738 319.576 104.235 317.622 100.635 312.185 100.635ZM292.35 124.685C295.025 114.311 303.34 103.417 309.095 103.417 311.251 103.417 312.791 104.649 312.791 108.652 312.8 119.854 300.367 122.732 292.35 124.685Z" transform="matrix(1 0 0 1.00061 -138.181 -41.0009)"/><path d="M347.658 100.635C339.853 100.635 332.76 106.593 332.76 113.791 332.76 122.424 343.038 127.967 343.038 136.291 343.038 141.017 339.439 143.384 336.051 143.384 330.912 143.384 327.005 137.629 326.697 133.52L325.157 133.212C322.896 135.06 322.482 137.427 322.482 138.967 322.482 142.354 324.638 146.772 332.24 146.772 340.257 146.772 347.966 141.017 347.966 132.288 347.966 128.689 346.426 125.503 344.472 122.529 352.489 116.977 355.876 111.327 355.876 107.016 355.876 102.069 351.555 100.635 347.658 100.635ZM343.856 121.702C340.873 117.487 337.591 113.897 337.591 110.298 337.591 105.572 342.624 103.417 345.502 103.417 348.582 103.417 350.333 105.678 350.333 108.864 350.323 112.453 348.062 117.082 343.856 121.702Z" transform="matrix(1 0 0 1.00061 -138.181 -41.0009)"/><path d="M378.685 85.3241C380.84 85.3241 382.9 83.5726 382.9 81.2148 382.9 78.9532 380.84 76.9995 378.685 76.9995 376.423 76.9995 374.373 78.9532 374.373 81.2148 374.373 83.5822 376.423 85.3241 378.685 85.3241Z" transform="matrix(1 0 0 1.00061 -138.181 -41.0009)"/><path d="M374.989 129.824C366.973 141.334 362.969 142.98 366.154 135.165L377.559 106.593C378.896 103.099 376.837 101.049 374.373 101.049 370.986 101.049 365.943 105.775 359.37 116.457L360.496 117.997C369.022 106.179 372.314 104.841 369.33 112.656L358.234 141.219C356.8 144.712 359.466 146.772 361.622 146.772 365.009 146.772 369.84 142.046 376.317 131.354L374.989 129.824Z" transform="matrix(1 0 0 1.00061 -138.181 -41.0009)"/><path d="M409.509 100.741C399.125 100.741 389.059 109.172 389.059 119.44 389.059 123.655 390.599 126.533 393.168 128.179 389.165 129.921 384.228 133.116 384.228 135.887 384.228 137.841 385.662 139.486 389.261 141.026 383.41 144.934 373.748 150.381 373.334 155.106 373.132 160.447 377.337 165.076 387.413 165.076 399.125 165.076 413.311 159.119 413.311 149.255 413.311 144.529 409.817 143.192 403.033 140.208L394.304 136.301C392.35 135.579 391.426 134.655 391.426 133.424 391.426 132.394 393.168 130.344 395.738 129.208 396.768 129.516 397.894 129.622 399.125 129.622 409.192 129.622 419.778 120.576 419.778 110.404 419.778 108.344 419.364 106.708 418.546 105.264L426.765 107.42 427.795 103.205C422.858 103.205 418.44 103.205 416.082 102.483 414.341 101.357 412.079 100.741 409.509 100.741ZM392.244 142.258 397.894 144.52C402.831 146.473 406.218 148.321 406.218 152.122 406.218 158.801 396.864 162.805 388.847 162.805 382.37 162.805 379.705 159.927 380.013 156.126 380.224 151.295 387.519 145.752 392.244 142.258ZM400.473 127.659C396.258 127.659 395.334 124.368 395.334 121.288 395.334 113.685 400.781 102.589 407.97 102.589 411.877 102.589 413.109 105.775 413.109 109.682 413.109 117.9 407.864 127.659 400.473 127.659Z" transform="matrix(1 0 0 1.00061 -138.181 -41.0009)"/><path d="M467.021 119.132C471.236 108.45 472.978 100.838 466.203 100.838 460.862 100.838 452.739 106.593 441.229 126.215L439.892 126.215 447.802 105.977C449.034 102.589 447.696 100.838 445.849 100.838 442.047 100.838 437.014 105.563 430.431 116.255L431.557 117.795C439.882 106.285 443.173 104.851 440.392 112.453L428.468 145.752 434.329 145.752C442.134 126.129 455.501 106.602 461.872 106.602 465.876 106.602 464.442 111.019 461.978 117.91L453.143 141.642C451.806 145.136 453.865 146.781 455.713 146.781 459.312 146.781 464.143 141.844 470.611 131.162L469.581 129.622C461.256 141.132 458.071 142.576 460.852 135.175L467.021 119.132Z" transform="matrix(1 0 0 1.00061 -138.181 -41.0009)"/><path d="M479.657 136.705C476.885 136.705 474.422 138.861 474.422 141.738 474.422 144.616 476.885 146.772 479.657 146.772 482.534 146.772 484.998 144.616 484.998 141.738 484.998 138.861 482.534 136.705 479.657 136.705Z" transform="matrix(1 0 0 1.00061 -138.181 -41.0009)"/></g></svg>