<?xml version="1.0" encoding="utf-8"?>
<!-- Generator: Adobe Illustrator 26.0.3, SVG Export Plug-In . SVG Version: 6.00 Build 0)  -->
<svg version="1.1" id="Layer_1" xmlns="http://www.w3.org/2000/svg" xmlns:xlink="http://www.w3.org/1999/xlink" x="0px" y="0px"
	 viewBox="0 0 360.4 128" style="enable-background:new 0 0 360.4 128;" xml:space="preserve">
<g>
	<path d="M77.4,38.4l7.5-16.6c4.9-11.2,5.8-21.5-4.4-21.5c-8.4,0-17.5,7.4-30.1,30.5h-1.5l3.8-8.7c4.8-10.9,8.3-21.8-2-21.8
		c-8.3,0-17.3,7.4-29.9,30.5h-1.5l9.1-22.3c1.9-4.6,0.7-8.2-5.2-8.2C15.7,0.3,8,6.4,0,18.1l2.5,2.5c6.9-9,13.8-14.5,10.6-5.3L0,52.1
		h13.7C22.3,30.7,37.8,10,42,10c2.4,0,1.5,3-2,12.9L29.7,52.1h13.7C52,30.6,67.5,10,71.7,10c2.4,0,2.6,1.7-1.4,11.5l-9.9,23.6
		c-1.9,4.8,0.1,8.2,6.1,8.2c8.1,0,16.1-6.4,24.1-18l-2.7-2.5C81.2,41.8,73.4,47.3,77.4,38.4z"/>
	<path d="M150.1,15.5C150.1,3.9,143,0,133.9,0c-19.4,0-36.6,19.7-36.6,37.8c0,11.4,7.2,15.6,16.2,15.6
		C132.8,53.3,150.1,33.7,150.1,15.5z M130.6,3.8c2.6,0,4.6,2.4,4.6,7.6c0,10.5-7.7,38.1-17.8,38.1c-3.1,0-5.5-2.3-5.5-8.4
		C112,28.6,121.4,3.8,130.6,3.8z"/>
	<path d="M205.6,53.3c10.1,0,23.5-6.7,23.5-17.5c0-4.3-2.1-7.7-4.5-10.9C230.9,19,236,13.3,236,7.7c0-6.1-6.5-7.7-11.4-7.7
		c-9,0-21.4,5.3-21.4,16.4s12.2,17.1,12.2,26c0,3.6-1.5,6.3-5,6.3c-4.9,0-9.4-5.6-9.7-10.3l-1.9-0.3l-2.1-0.4
		c-3,2.8-3.4,5.2-3.4,6.7C193.2,48.6,197.3,53.3,205.6,53.3z M222.8,4.4c3.2,0,4.9,3,4.9,7s-1.5,7.8-4.4,11.8
		c-3.2-3.9-6.5-7.7-6.5-12.3C216.7,6.4,219.9,4.4,222.8,4.4z"/>
	<path d="M138.9,97l16.3-46c1.8,1.4,4.4,2.4,8.1,2.4c10.1,0,23.5-6.7,23.5-17.5c0-4.3-2.1-7.7-4.5-10.9c6.3-5.9,11.4-11.6,11.4-17.2
		c0-6.1-6.5-7.7-11.4-7.7c-9,0-21.4,5.3-21.4,16.4s12.2,17.1,12.2,26c0,3.6-1.5,6.3-5,6.3c-4.9,0-8.5-4.8-8.8-9.5l-1.1-0.3
		c-1.2-0.3-2.4-0.4-3.7-0.3l-1.4,0.2l-1.6,4.7c-0.9,2.6,0.1-0.4-1.8,5.3l-4.6,13.2c-1.5-0.5-2.4-0.8-4.5-0.8
		c-16.4,0-34.2,18.5-34.2,37.2c0,8.1,3.5,10.8,5.7,10.8c4.8,0,17.2-13.8,23.9-21.1l-5.5,15.8c-1.2,3.6,1.6,5.3,3.3,5.3
		c3.5,0,8.8-5.1,15.3-16.2l-1.1-1.6C139.3,103.2,136,104.8,138.9,97z M180.5,4.4c3.2,0,4.9,3,4.9,7s-1.5,7.8-4.4,11.8
		c-3.2-3.9-6.5-7.7-6.5-12.3C174.5,6.4,177.7,4.4,180.5,4.4z M117.1,101.9c-3.5,0-4.5-4.1-4.5-8.1c0-11.6,11.8-29.2,22-29.2
		c2.8,0,6.4,1.2,8.5,3.2l-5.8,16.4C130.4,91.1,119.3,101.9,117.1,101.9z"/>
	<path d="M180.9,61.1c-13.8,0-28.6,19-28.6,35.1c0,7.9,3.7,12.7,10.5,12.7c5.5,0,14.5-3.4,19.2-11.5l-0.9-1.5
		c-3.4,4.8-9.9,7.8-14,7.8c-4.9,0-7.8-5-7.8-10.9c0-1.4,0.1-2.8,0.4-4.3c18.6-4.2,28.8-11.1,28.8-20.1
		C188.5,64.8,186.5,61.1,180.9,61.1z M160.2,86.1C163,75.3,171.7,64,177.6,64c2.2,0,3.8,1.3,3.8,5.4C181.5,81.1,168.6,84,160.2,86.1
		z"/>
	<path d="M217.7,61.1c-8.1,0-15.5,6.2-15.5,13.7c0,9,10.7,14.7,10.7,23.4c0,4.9-3.7,7.4-7.3,7.4c-5.3,0-9.4-6-9.7-10.2l-1.6-0.3
		c-2.4,1.9-2.8,4.4-2.8,6c0,3.5,2.2,8.1,10.1,8.1c8.3,0,16.3-6,16.3-15.1c0-3.7-1.6-7.1-3.6-10.1c8.3-5.8,11.9-11.6,11.9-16.1
		C226.3,62.6,221.8,61.1,217.7,61.1z M213.8,83c-3.1-4.4-6.5-8.1-6.5-11.8c0-4.9,5.2-7.2,8.2-7.2c3.2,0,5,2.3,5,5.7
		C220.5,73.4,218.1,78.2,213.8,83z"/>
	<path d="M249.9,45.2c2.2,0,4.4-1.8,4.4-4.3c0-2.3-2.1-4.4-4.4-4.4c-2.4,0-4.5,2-4.5,4.4C245.5,43.4,247.6,45.2,249.9,45.2z"/>
	<path d="M246.1,91.4c-8.3,12-12.5,13.7-9.2,5.6l11.9-29.7c1.4-3.6-0.8-5.8-3.3-5.8c-3.5,0-8.8,4.9-15.6,16l1.2,1.6
		c8.9-12.3,12.3-13.7,9.2-5.6l-11.5,29.7c-1.5,3.6,1.3,5.8,3.5,5.8c3.5,0,8.5-4.9,15.3-16L246.1,91.4z"/>
	<path d="M282,61.2c-10.8,0-21.2,8.8-21.2,19.4c0,4.4,1.6,7.4,4.3,9.1c-4.2,1.8-9.3,5.1-9.3,8c0,2,1.5,3.7,5.2,5.3
		c-6.1,4.1-16.1,9.7-16.6,14.6c-0.2,5.6,4.2,10.4,14.6,10.4c12.2,0,26.9-6.2,26.9-16.4c0-4.9-3.6-6.3-10.7-9.4l-9.1-4.1
		c-2-0.8-3-1.7-3-3c0-1.1,1.8-3.2,4.5-4.4c1.1,0.3,2.2,0.4,3.5,0.4c10.5,0,21.5-9.4,21.5-20c0-2.1-0.4-3.8-1.3-5.3l8.5,2.2l1.1-4.4
		c-5.1,0-9.7,0-12.2-0.8C287,61.8,284.7,61.2,282,61.2z M264,104.3l5.9,2.4c5.1,2,8.7,3.9,8.7,7.9c0,6.9-9.7,11.1-18,11.1
		c-6.7,0-9.5-3-9.2-6.9C251.6,113.7,259.1,108,264,104.3z M272.6,89.2c-4.4,0-5.3-3.4-5.3-6.6c0-7.9,5.7-19.4,13.1-19.4
		c4.1,0,5.3,3.3,5.3,7.4C285.7,79,280.3,89.2,272.6,89.2z"/>
	<path d="M341.7,80.3c4.4-11.1,6.2-19-0.8-19c-5.5,0-14,6-26,26.4h-1.4l8.2-21c1.3-3.5-0.1-5.3-2-5.3c-4,0-9.2,4.9-16,16l1.2,1.6
		c8.6-12,12.1-13.4,9.2-5.6L301.7,108h6.1c8.1-20.4,22-40.7,28.6-40.7c4.2,0,2.7,4.6,0.1,11.8l-9.2,24.7c-1.4,3.6,0.8,5.3,2.7,5.3
		c3.7,0,8.8-5.1,15.5-16.2l-1.1-1.6c-8.6,12-12,13.5-9.1,5.8L341.7,80.3z"/>
	<path d="M354.9,98.6c-2.9,0-5.4,2.2-5.4,5.2s2.6,5.2,5.4,5.2c3,0,5.5-2.2,5.5-5.2S357.9,98.6,354.9,98.6z"/>
</g>
</svg>
